<svg width="40" height="40" viewBox="0 0 40 40" fill="none" xmlns="http://www.w3.org/2000/svg">
<path d="M20 0C8.95445 0 0 8.9543 0 20C0 31.0457 8.95445 40 20 40C31.0455 40 40 31.0457 40 20C40 8.9543 31.0455 0 20 0ZM17.5 25C17.5 25.6903 16.9403 26.25 16.25 26.25H13.75C13.0597 26.25 12.5 25.6903 12.5 25V15C12.5 14.3097 13.0597 13.75 13.75 13.75H16.25C16.9403 13.75 17.5 14.3097 17.5 15V25ZM27.5 25C27.5 25.6903 26.9403 26.25 26.25 26.25H23.75C23.0597 26.25 22.5 25.6903 22.5 25V15C22.5 14.3097 23.0597 13.75 23.75 13.75H26.25C26.9403 13.75 27.5 14.3097 27.5 15V25Z" fill="#57FA9A"/>
</svg>
